<svg id="Layer_2" data-name="Layer 2" xmlns="http://www.w3.org/2000/svg" viewBox="0 0 1006.26 953.74"><defs><style>.cls-1{fill:#a2988e;}</style></defs><title>home-btn</title><path class="cls-1" d="M403.1,988c-0.66-3.22-.23-148.08-0.06-198.08a16.82,16.82,0,0,1,16.83-16.77h190A16.83,16.83,0,0,1,626.67,790V988H853.23a16.83,16.83,0,0,0,16.83-16.83V530.95a16.83,16.83,0,0,0-5.6-12.53L516.24,206.31,165.36,518.41A16.83,16.83,0,0,0,159.71,531v440.2A16.83,16.83,0,0,0,176.54,988H403.1Z" transform="translate(-12.06 -34.27)"/><polygon class="cls-1" points="52.52 505.01 504.18 105.44 953.14 505.01 1006.26 444.76 504.18 0 0 444.76 52.52 505.01"/><polygon class="cls-1" points="731.95 138.74 858 252.51 858 63.42 731.95 63.42 731.95 138.74"/></svg>