<svg id="Layer_1" data-name="Layer 1" xmlns="http://www.w3.org/2000/svg" viewBox="0 0 1207 161"><defs><style>.cls-1{fill:#fff;}</style></defs><title>Mount-Vernon-White</title><path class="cls-1" d="M113.3,30.4c-4.7-9.3-9.2-13.2-14.3-13.2-5.7,0-11.8,5.8-11.8,18.7,0,11.5,5.9,19.3,14.4,19.3a13.33,13.33,0,0,0,6.1-1.7V41.3l-5.3-1.2V39h17.2v1.1l-4.3,1.2V57.4l-0.8.2-5.4-2.9a23,23,0,0,1-11,3.3c-11.5,0-19.2-8.8-19.2-20.9a21.64,21.64,0,0,1,22-21.8,21.91,21.91,0,0,1,9.6,2.2l2.6-2.3h1l0.6,15.1Z" transform="translate(-9.7 -14.9)"/><path class="cls-1" d="M177.7,29.3l-0.9.6-5.3-7c-2.4-3.1-3.5-4.1-7.9-4.1h-8.2V35.2h3.2c3.3,0,5.3-1.5,6.5-5.6l0.7-2.5H167V45.3h-1.2L165,43c-1.2-4.2-3.2-5.8-6.5-5.8h-3.2V54.5h9.8c4.1,0,5.2-.9,7.2-3.7l5.9-8,0.9,0.3-1.6,13.7H141.6V55.7l6.1-1.2V18.8l-6.1-1.2V16.5h34.7Z" transform="translate(-9.7 -14.9)"/><path class="cls-1" d="M223.8,58c-13.6,0-20.3-9.6-20.3-21.4s7.6-21.3,20.7-21.3c13.6,0,20.4,9.6,20.4,21.3S236.9,58,223.8,58Zm-0.4-41.2c-6.4,0-11.5,4.8-11.5,19.8s5.9,20,12.8,20c6.4,0,11.6-6.5,11.6-20S230.3,16.8,223.4,16.8Z" transform="translate(-9.7 -14.9)"/><path class="cls-1" d="M289.7,37v0.4c4.8,1.2,6.8,3.4,8.3,7,2.3,5.5,4,8,5,8.9a8.31,8.31,0,0,0,4.9,2.3v1.2h-7c-5.6,0-6.6-2.1-8.7-6.8l-3.1-7c-1.7-3.9-3.4-4.7-7.1-4.7h-2V54.4l6.1,1.2v1.1H266.3V55.6l6.1-1.2V18.8l-6.1-1.2V16.5H287c9.8,0,14.8,4.1,14.8,10.2C301.8,31.9,297.7,35.6,289.7,37Zm-5.4-18.5c-2,0-3.8.2-4.4,0.2V36.4h4c5.6,0,9.8-3.3,9.8-9.1S289.5,18.5,284.3,18.5Z" transform="translate(-9.7 -14.9)"/><path class="cls-1" d="M361.1,30.4c-4.7-9.3-9.2-13.2-14.3-13.2-5.7,0-11.8,5.8-11.8,18.7,0,11.5,5.9,19.3,14.4,19.3a13.33,13.33,0,0,0,6.1-1.7V41.3l-5.3-1.2V39h17.2v1.1l-4.3,1.2V57.4l-0.8.2-5.4-2.9a23,23,0,0,1-11,3.3c-11.5,0-19.2-8.8-19.2-20.9a21.64,21.64,0,0,1,22-21.8,21.91,21.91,0,0,1,9.6,2.2l2.6-2.3h1l0.6,15.1Z" transform="translate(-9.7 -14.9)"/><path class="cls-1" d="M423.9,29.3l-0.9.6-5.3-7c-2.4-3.1-3.5-4.1-7.9-4.1h-8.2V35.2h3.2c3.3,0,5.3-1.5,6.5-5.6l0.7-2.5h1.2V45.3H412L411.3,43c-1.2-4.2-3.2-5.8-6.5-5.8h-3.2V54.5h9.8c4.1,0,5.2-.9,7.2-3.7l5.9-8,0.9,0.3-1.6,13.7H387.9V55.7l6.1-1.2V18.8l-6.1-1.2V16.5h34.7Z" transform="translate(-9.7 -14.9)"/><path class="cls-1" d="M509.2,19.1l-4.7-1.6V16.4h17.7v1.1l-5.4,1.2,9,28.7H526l7.9-28-4.6-2V16.3h12.2v1.1L537,19.3,524.8,57h-2.6l-10-29H512L501,57.2h-2.6l-11.7-38-5.4-1.6V16.5H500v1.1l-5.4,1.2,7.9,28.7h0.2L511,24.1Z" transform="translate(-9.7 -14.9)"/><path class="cls-1" d="M562,54l4.8,1.6v1.2H554.4V55.6l4.5-1.7,14.9-38.2h4l14.5,38.4,5.2,1.5v1.2H578.4V55.6l6-1.1-4.2-11.6H566Zm11.4-30.7h-0.2L567,40.4h12.5Z" transform="translate(-9.7 -14.9)"/><path class="cls-1" d="M632.6,58a23.16,23.16,0,0,1-9.8-2l-2.6,2.2h-1.1l-0.8-14.5,1.4-.2c4.7,9.5,8.8,12.7,13.4,12.7,5,0,8.2-3.1,8.2-7.2,0-5-3.7-7-8.1-8.8-2.5-1-5.2-1.8-7.5-2.9-3.8-1.9-6.7-4.6-6.7-9.8,0-7.6,7-12.3,13.9-12.3a15.27,15.27,0,0,1,8.1,2.1l2.5-2.4h1.2l1,13.3-1.5.2c-4.8-8-7.9-11.2-12.4-11.2-4,0-7,2.8-7,6.6,0,4,2.9,5.9,6.5,7.4,2.4,1,5.1,1.8,7.6,2.9,4.4,2,8.1,4.7,8.1,11C647,53.2,639.8,58,632.6,58Z" transform="translate(-9.7 -14.9)"/><path class="cls-1" d="M703.2,18.8l-6.1-1.2V16.5h19.8v1.1l-6.1,1.2V54.4l6.1,1.2v1.1H697V55.6l6.1-1.2V37.1h-20V54.4l6.1,1.2v1.1H669.4V55.6l6.1-1.2V18.8l-6.1-1.2V16.5h19.8v1.1l-6.1,1.2V34.7h20V18.8h0.1Z" transform="translate(-9.7 -14.9)"/><path class="cls-1" d="M758.4,55.6v1.1H737.9V55.6l6.5-1.2V18.8l-6.5-1.2V16.5h20.5v1.1l-6.5,1.2V54.4Z" transform="translate(-9.7 -14.9)"/><path class="cls-1" d="M786.7,19.3l-5.2-1.7V16.5h12.9l5.1,6.9L816,45.2h0.6V19.4l-5.4-1.8V16.5h13v1.1L819,19.4v38h-3.2l-5.1-7L789.6,22.5H789V53.8l5.4,1.8v1.1h-13V55.6l5.2-1.8V19.3h0.1Z" transform="translate(-9.7 -14.9)"/><path class="cls-1" d="M879.8,30.4c-4.7-9.3-9.2-13.2-14.3-13.2-5.7,0-11.8,5.8-11.8,18.7,0,11.5,5.9,19.3,14.4,19.3a13.33,13.33,0,0,0,6.1-1.7V41.3l-5.3-1.2V39h17.2v1.1l-4.3,1.2V57.4l-0.8.2-5.4-2.9a23,23,0,0,1-11,3.3c-11.5,0-19.2-8.8-19.2-20.9a21.64,21.64,0,0,1,22-21.8,21.91,21.91,0,0,1,9.6,2.2l2.6-2.3h1l0.6,15.1Z" transform="translate(-9.7 -14.9)"/><path class="cls-1" d="M943.7,30.8l-3.8-5.4c-3.4-4.8-5-6.5-8.7-6.5h-2.8V54.5l6.5,1.2v1.1H914.4V55.7l6.5-1.2V18.8h-3.4c-3.6,0-5.2,1.7-8.6,6.5l-3.8,5.4-0.8-.3,2.5-14H942l2.5,14Z" transform="translate(-9.7 -14.9)"/><path class="cls-1" d="M984.2,58c-13.6,0-20.3-9.6-20.3-21.4s7.6-21.3,20.7-21.3c13.6,0,20.4,9.6,20.4,21.3S997.3,58,984.2,58Zm-0.4-41.2c-6.4,0-11.5,4.8-11.5,19.8s5.9,20,12.8,20c6.4,0,11.6-6.5,11.6-20S990.7,16.8,983.8,16.8Z" transform="translate(-9.7 -14.9)"/><path class="cls-1" d="M1030.6,19.3l-5.2-1.7V16.5h12.9l5.1,6.9L1060,45.3h0.6V19.4l-5.4-1.8V16.5h13v1.1l-5.2,1.8v38h-3.2l-5.1-7-21.1-27.9H1033V53.8l5.4,1.8v1.1h-13V55.6l5.2-1.8V19.3h0Z" transform="translate(-9.7 -14.9)"/><path class="cls-1" d="M1091.3,33.8l-0.8-1c4.6-3.9,6.1-6.5,6.8-8.9l-0.2-.1-1.4.3a2.54,2.54,0,0,1-1.2.2,3.92,3.92,0,0,1-3.9-4.2,4.93,4.93,0,0,1,4.9-5c3.5,0,5.6,2.8,5.6,6.8S1098,30.4,1091.3,33.8Z" transform="translate(-9.7 -14.9)"/><path class="cls-1" d="M1133.3,58a23.16,23.16,0,0,1-9.8-2l-2.6,2.2h-1.1L1119,43.7l1.4-.2c4.7,9.5,8.8,12.7,13.4,12.7,5,0,8.2-3.1,8.2-7.2,0-5-3.7-7-8.1-8.8-2.5-1-5.2-1.8-7.5-2.9-3.8-1.9-6.7-4.6-6.7-9.8,0-7.6,7-12.3,13.9-12.3a15.27,15.27,0,0,1,8.1,2.1l2.5-2.4h1.2l1,13.3-1.5.2c-4.8-8-7.9-11.2-12.4-11.2-4,0-7,2.8-7,6.6,0,4,2.9,5.9,6.5,7.4,2.4,1,5.1,1.8,7.6,2.9,4.4,2,8.1,4.7,8.1,11C1147.7,53.2,1140.5,58,1133.3,58Z" transform="translate(-9.7 -14.9)"/><polygon class="cls-1" points="573.5 90.5 579.7 109.6 599.8 109.6 583.5 121.4 589.7 140.5 573.5 128.7 557.2 140.5 563.4 121.4 547.2 109.6 567.3 109.6 573.5 90.5"/><path class="cls-1" d="M118.9,171.8V174h-40v-2.2l9.6-3.1V100.9H87.6L60,174H56.4L27.1,101H26.2v66.6l10.9,4.2V174H9.7v-2.2l11.1-4.2v-70L9.7,94.3V92.1H44.5l5,13.2,15.3,41.4h0.6l15.3-41.4,4.9-13.2h33.2v2.2l-11.1,3.1v71.4Z" transform="translate(-9.7 -14.9)"/><path class="cls-1" d="M177.1,175.9c-27.9,0-40.9-19.7-40.9-42.9s14.9-42.8,41.7-42.8c28,0,40.9,19.7,40.9,42.8S203.8,175.9,177.1,175.9Zm-0.6-81.6c-11.8,0-19.2,9.8-19.2,38.7,0,29.1,8.4,38.7,21.2,38.7,11.8,0,19.2-13,19.2-38.7S189.3,94.3,176.5,94.3Z" transform="translate(-9.7 -14.9)"/><path class="cls-1" d="M296.9,94.3V92.1h24.2v2.2l-9.4,4.2V147c0,18.6-12.9,28.9-31.2,28.9-21.7,0-34.7-9.9-34.7-31.2V97.3l-11.1-3.1V92h41.5v2.2L265,97.3v49.9c0,13.8,6.8,20.8,20.6,20.8,13.1,0,20.6-8.1,20.6-22.2V98.5Z" transform="translate(-9.7 -14.9)"/><path class="cls-1" d="M347.2,98.5L337,94.3V92.1h26.6L374,105.2l32.9,40.4h0.9V98.9l-10.9-4.6V92.1h27.4v2.2l-10.9,4.6v75.9h-7.2l-10.5-13.1-42-50.7h-0.9v56.2l10.9,4.6V174H336.3v-2.2l10.9-4.6V98.5h0Z" transform="translate(-9.7 -14.9)"/><path class="cls-1" d="M516.9,121.4l-11.7-15.8c-5-6.8-8.2-8.5-14.7-9l-1.7-.1v72.3l11.6,3.1v2.2H458v-2.2l11.6-3.1V96.4l-2.2.1c-6.4.4-9.5,2.2-14.5,9L441,121.4l-2.7-.6,3.6-28.7h74.2l3.6,28.7Z" transform="translate(-9.7 -14.9)"/><path class="cls-1" d="M681.4,174.7h-4.8L645.4,98l-10.3-3.7V92.1h40.8v2.2l-10.2,3.1,19.9,54.1,18.9-52.2-8.6-5V92.1h25.3v2.2l-7.8,4.2Z" transform="translate(-9.7 -14.9)"/><path class="cls-1" d="M808.9,119.7l-2.4.6-10-14.1c-4.6-6.6-7.8-8.9-16.8-9.3L768,96.4v34.1h4.4c7.3,0,10.3-2.6,13.2-10.5l1.5-4.2h2.7v34.6H787l-1.5-4c-3.1-8-5.9-10.5-13.2-10.5h-4.4v33.7l15.8-.8c7.2-.4,11.4-3.1,15.7-8.5l10.4-13.4,2.4,0.5L809.8,174H737.4v-2.2l11.2-3.1V97.3l-11.2-3.1V92h69.7Z" transform="translate(-9.7 -14.9)"/><path class="cls-1" d="M882.3,133.7v0.6c11.8,1.8,16.7,7.5,19.4,15.4,2.7,8.1,4.9,13.2,7.8,16.8a15.79,15.79,0,0,0,7.5,5.1v2.2H901.4c-10,0-13.1-3.7-17.4-14.4l-5.3-13.2c-2.8-7.2-7.1-9.3-15.4-9.3H862v31.6l11.1,3.1v2.2H831.6v-2.2l11.2-3.1V97.3l-11.2-3.1V92H880c18.3,0,26.6,9.9,26.6,20.1C906.6,121.9,899.5,131,882.3,133.7ZM869.9,96.8l-8-.3v36.1l8-.3c9.5-.3,17-6.3,17-17.6S879.5,97.1,869.9,96.8Z" transform="translate(-9.7 -14.9)"/><path class="cls-1" d="M941.4,98.5l-10.2-4.2V92.1h26.6l10.4,13.1,32.9,40.4h0.9V98.9l-10.9-4.6V92.1h27.4v2.2l-10.9,4.6v75.9h-7.2l-10.5-13.1-42-50.7H947v56.2l10.9,4.6V174H930.5v-2.2l10.9-4.6V98.5Z" transform="translate(-9.7 -14.9)"/><path class="cls-1" d="M1071.6,175.9c-27.9,0-40.9-19.7-40.9-42.9s14.9-42.8,41.7-42.8c28,0,40.9,19.7,40.9,42.8S1098.4,175.9,1071.6,175.9ZM1071,94.3c-11.8,0-19.2,9.8-19.2,38.7,0,29.1,8.4,38.7,21.2,38.7,11.8,0,19.2-13,19.2-38.7S1083.9,94.3,1071,94.3Z" transform="translate(-9.7 -14.9)"/><path class="cls-1" d="M1139.6,98.5l-10.2-4.2V92.1H1156l10.4,13.1,32.9,40.4h0.9V98.9l-10.9-4.6V92.1h27.4v2.2l-10.9,4.6v75.9h-7.2l-10.5-13.1-42-50.7h-0.9v56.2l10.9,4.6V174h-27.4v-2.2l10.9-4.6V98.5h0Z" transform="translate(-9.7 -14.9)"/></svg>