<svg id="Layer_2" data-name="Layer 2" xmlns="http://www.w3.org/2000/svg" viewBox="0 0 999.18 848.12"><defs><style>.cls-1{opacity:0.55;}</style></defs><title>refresh_icon</title><path d="M295.12,469.34l171.32,1.31L227,716.06,10.51,470.64,163.07,470C180.07,251.67,363,78.57,585.63,78.57c233.83,0,424.06,190.23,424.06,424.06S819.45,926.69,585.63,926.69A422.26,422.26,0,0,1,308.69,823.52l91.61-96a290.19,290.19,0,0,0,185.33,66.65c160.75,0,291.52-130.78,291.52-291.52S746.37,211.11,585.63,211.11C436.59,211.11,312.29,324.84,295.12,469.34Z" transform="translate(-10.51 -78.57)"/></svg>